# xmcd CD database file
#
# Track frame offsets:
#	150
#	15812
#	31185
#	46485
#	64872
#	84892
#	104067
#	116577
#	132390
#	149665
#	165420
#	183335
#	207977
#	224530
#	245952
#	266643
#	280143
#	303179
#
# Disc length: 4245 seconds
#
# Revision: 0
# Processed by: cddbd v1.5.2PL0 Copyright (c) Steve Scherf et al.
# Submitted via: CDex 1.51
#
DISCID=09109312
DTITLE=Harry Connick, Jr. - What A Night!
DYEAR=2008
DGENRE=Jazz
TTITLE0=It's the Most Wonderful Time of the Year
TTITLE1=What A Night!
TTITLE2=Christmas Day
TTITLE3=Have A Holly Jolly Christmas
TTITLE4=Please Come Home For Christmas
TTITLE5=O Come All Ye Faithful
TTITLE6=Dance of the Sugarplum Fairies
TTITLE7=Let There Be Peace On Earth
TTITLE8=Winter Wonderland
TTITLE9=It's Beginning To Look A Lot Like Christmas
TTITLE10=Santarrific
TTITLE11=Jingle Bells
TTITLE12=Zat You Santa Claus
TTITLE13=We Three Kings
TTITLE14=Song For The Hopeful
TTITLE15=Deck The Halls
TTITLE16=Christmas Time Is Here
TTITLE17=O Christmas Tree
EXTD=YEAR: 2008
EXTT0=
EXTT1=
EXTT2=
EXTT3=
EXTT4=
EXTT5=
EXTT6=
EXTT7=
EXTT8=
EXTT9=
EXTT10=
EXTT11=
EXTT12=
EXTT13=
EXTT14=
EXTT15=
EXTT16=
EXTT17=
PLAYORDER=
